<svg width="2232" height="1790" viewBox="0 0 2232 1790" fill="none" xmlns="http://www.w3.org/2000/svg">
<g clip-path="url(#clip0_196_213)">
<path d="M425.528 57.9268L-101.5 1790H2331.5L1798.47 57.9268H425.528Z" fill="#01BA5C"/>
<path fill-rule="evenodd" clip-rule="evenodd" d="M106.278 1260.04H2114.87L2185.5 1506H29.5L106.278 1260.04Z" fill="#00AE55"/>
<path fill-rule="evenodd" clip-rule="evenodd" d="M157.48 1080.65H2063.78L2116.39 1260.04H104.865L157.48 1080.65Z" fill="#01BA5C"/>
<path fill-rule="evenodd" clip-rule="evenodd" d="M205.386 917.288H2018.42L2068.55 1080.65H156.555L205.386 917.288Z" fill="#00AE55"/>
<path fill-rule="evenodd" clip-rule="evenodd" d="M249.076 768.962H1973.38L2016.4 917.288H205.962L249.076 768.962Z" fill="#01BA5C"/>
<path fill-rule="evenodd" clip-rule="evenodd" d="M286.293 633.666H1934.64L1974.08 768.962H249.959L286.293 633.666Z" fill="#00AE55"/>
<path fill-rule="evenodd" clip-rule="evenodd" d="M322.633 510.395H1898.56L1934.93 633.666H287.895L322.633 510.395Z" fill="#01BA5C"/>
<path fill-rule="evenodd" clip-rule="evenodd" d="M356.42 398.149H1868.84L1901.86 510.395H323.857L356.42 398.149Z" fill="#00AE55"/>
<path fill-rule="evenodd" clip-rule="evenodd" d="M386.206 295.925H1836.02L1863.06 398.149H359.569L386.206 295.925Z" fill="#01BA5C"/>
<path d="M413.247 202.721H1813.42L1839.52 295.925H387.522L413.247 202.721Z" fill="#00AE55"/>
<path fill-rule="evenodd" clip-rule="evenodd" d="M438.021 116.531H1785.77L1808.67 202.721H414.861L438.021 116.531Z" fill="#01BA5C"/>
<path fill-rule="evenodd" clip-rule="evenodd" d="M438.021 116.531H1785.77L1808.67 202.721H414.861L438.021 116.531Z" fill="#01BA5C"/>
<path opacity="0.102" d="M925.207 57.9248L955.157 115.53H1269.63L1299.58 57.9248H925.207Z" fill="black"/>
<path d="M965.689 4.79864L972.893 8.90914V17.1301L965.689 21.2406L958.486 17.1301V8.90914L965.689 4.79864ZM965.689 3.79199L957.686 8.40581V17.6335L965.689 22.2473L973.693 17.6335V8.40581L965.689 3.79199Z" fill="#CECECE"/>
<path d="M980.896 4.79864L988.099 8.90914V17.1301L980.896 21.2406L973.693 17.1301V8.90914L980.896 4.79864ZM980.896 3.79199L972.893 8.40581V17.6335L980.896 22.2473L988.899 17.6335V8.40581L980.896 3.79199Z" fill="#CECECE"/>
<path d="M996.103 4.79864L1003.31 8.90914V17.1301L996.103 21.2406L988.899 17.1301V8.90914L996.103 4.79864ZM996.103 3.79199L988.099 8.40581V17.6335L996.103 22.2473L1004.11 17.6335V8.40581L996.103 3.79199Z" fill="#CECECE"/>
<path d="M1011.31 4.79864L1018.51 8.90914V17.1301L1011.31 21.2406L1004.11 17.1301V8.90914L1011.31 4.79864ZM1011.31 3.79199L1003.31 8.40581V17.6335L1011.31 22.2473L1019.31 17.6335V8.40581L1011.31 3.79199Z" fill="#CECECE"/>
<path d="M1026.52 4.79864L1033.72 8.90914V17.1301L1026.52 21.2406L1019.31 17.1301V8.90914L1026.52 4.79864ZM1026.52 3.79199L1018.51 8.40581V17.6335L1026.52 22.2473L1034.52 17.6335V8.40581L1026.52 3.79199Z" fill="#CECECE"/>
<path d="M1041.72 4.79864L1048.93 8.90914V17.1301L1041.72 21.2406L1034.52 17.1301V8.90914L1041.72 4.79864ZM1041.72 3.79199L1033.72 8.40581V17.6335L1041.72 22.2473L1049.73 17.6335V8.40581L1041.72 3.79199Z" fill="#CECECE"/>
<path d="M1056.93 4.79864L1064.13 8.90914V17.1301L1056.93 21.2406L1049.73 17.1301V8.90914L1056.93 4.79864ZM1056.93 3.79199L1048.93 8.40581V17.6335L1056.93 22.2473L1064.93 17.6335V8.40581L1056.93 3.79199Z" fill="#CECECE"/>
<path d="M1072.14 4.79864L1079.34 8.90914V17.1301L1072.14 21.2406L1064.93 17.1301V8.90914L1072.14 4.79864ZM1072.14 3.79199L1064.13 8.40581V17.6335L1072.14 22.2473L1080.14 17.6335V8.40581L1072.14 3.79199Z" fill="#CECECE"/>
<path d="M1087.34 4.79864L1094.54 8.90914V17.1301L1087.34 21.2406L1080.14 17.1301V8.90914L1087.34 4.79864ZM1087.34 3.79199L1079.34 8.40581V17.6335L1087.34 22.2473L1095.35 17.6335V8.40581L1087.34 3.79199Z" fill="#CECECE"/>
<path d="M1102.55 4.79864L1109.75 8.90914V17.1301L1102.55 21.2406L1095.35 17.1301V8.90914L1102.55 4.79864ZM1102.55 3.79199L1094.54 8.40581V17.6335L1102.55 22.2473L1110.55 17.6335V8.40581L1102.55 3.79199Z" fill="#CECECE"/>
<path d="M1117.75 4.79864L1124.96 8.90914V17.1301L1117.75 21.2406L1110.55 17.1301V8.90914L1117.75 4.79864ZM1117.75 3.79199L1109.75 8.40581V17.6335L1117.75 22.2473L1125.76 17.6335V8.40581L1117.75 3.79199Z" fill="#CECECE"/>
<path d="M1132.96 4.79864L1140.16 8.90914V17.1301L1132.96 21.2406L1125.76 17.1301V8.90914L1132.96 4.79864ZM1132.96 3.79199L1124.96 8.40581V17.6335L1132.96 22.2473L1140.96 17.6335V8.40581L1132.96 3.79199Z" fill="#CECECE"/>
<path d="M1148.17 4.79864L1155.37 8.90914V17.1301L1148.17 21.2406L1140.96 17.1301V8.90914L1148.17 4.79864ZM1148.17 3.79199L1140.16 8.40581V17.6335L1148.17 22.2473L1156.17 17.6335V8.40581L1148.17 3.79199Z" fill="#CECECE"/>
<path d="M1163.37 4.79864L1170.58 8.90914V17.1301L1163.37 21.2406L1156.17 17.1301V8.90914L1163.37 4.79864ZM1163.37 3.79199L1155.37 8.40581V17.6335L1163.37 22.2473L1171.38 17.6335V8.40581L1163.37 3.79199Z" fill="#CECECE"/>
<path d="M1178.58 4.79864L1185.78 8.90914V17.1301L1178.58 21.2406L1171.38 17.1301V8.90914L1178.58 4.79864ZM1178.58 3.79199L1170.58 8.40581V17.6335L1178.58 22.2473L1186.58 17.6335V8.40581L1178.58 3.79199Z" fill="#CECECE"/>
<path d="M1193.79 4.79864L1200.99 8.90914V17.1301L1193.79 21.2406L1186.58 17.1301V8.90914L1193.79 4.79864ZM1193.79 3.79199L1185.78 8.40581V17.6335L1193.79 22.2473L1201.79 17.6335V8.40581L1193.79 3.79199Z" fill="#CECECE"/>
<path d="M1208.99 4.79864L1216.2 8.90914V17.1301L1208.99 21.2406L1201.79 17.1301V8.90914L1208.99 4.79864ZM1208.99 3.79199L1200.99 8.40581V17.6335L1208.99 22.2473L1217 17.6335V8.40581L1208.99 3.79199Z" fill="#CECECE"/>
<path d="M1224.2 4.79864L1231.4 8.90914V17.1301L1224.2 21.2406L1217 17.1301V8.90914L1224.2 4.79864ZM1224.2 3.79199L1216.2 8.40581V17.6335L1224.2 22.2473L1232.2 17.6335V8.40581L1224.2 3.79199Z" fill="#CECECE"/>
<path d="M1239.41 4.79864L1246.61 8.90914V17.1301L1239.41 21.2406L1232.2 17.1301V8.90914L1239.41 4.79864ZM1239.41 3.79199L1231.4 8.40581V17.6335L1239.41 22.2473L1247.41 17.6335V8.40581L1239.41 3.79199Z" fill="#CECECE"/>
<path d="M1254.61 4.79864L1261.82 8.90914V17.1301L1254.61 21.2406L1247.41 17.1301V8.90914L1254.61 4.79864ZM1254.61 3.79199L1246.61 8.40581V17.6335L1254.61 22.2473L1262.62 17.6335V8.40581L1254.61 3.79199Z" fill="#CECECE"/>
<path d="M973.293 18.2206L980.496 22.3311V30.5521L973.293 34.6626L966.09 30.5521V22.3311L973.293 18.2206ZM973.293 17.2979L965.289 21.9117V31.1393L973.293 35.7531L981.296 31.1393V21.9117L973.293 17.2979Z" fill="#CECECE"/>
<path d="M988.499 18.2206L995.702 22.3311V30.5521L988.499 34.6626L981.296 30.5521V22.3311L988.499 18.2206ZM988.499 17.2979L980.496 21.9117V31.1393L988.499 35.7531L996.503 31.1393V21.9117L988.499 17.2979Z" fill="#CECECE"/>
<path d="M1003.71 18.2206L1010.91 22.3311V30.5521L1003.71 34.6626L996.503 30.5521V22.3311L1003.71 18.2206ZM1003.71 17.2979L995.702 21.9117V31.1393L1003.71 35.7531L1011.71 31.1393V21.9117L1003.71 17.2979Z" fill="#CECECE"/>
<path d="M1018.91 18.2206L1026.12 22.3311V30.5521L1018.91 34.6626L1011.71 30.5521V22.3311L1018.91 18.2206ZM1018.91 17.2979L1010.91 21.9117V31.1393L1018.91 35.7531L1026.92 31.1393V21.9117L1018.91 17.2979Z" fill="#CECECE"/>
<path d="M1034.12 18.2206L1041.32 22.3311V30.5521L1034.12 34.6626L1026.92 30.5521V22.3311L1034.12 18.2206ZM1034.12 17.2979L1026.12 21.9117V31.1393L1034.12 35.7531L1042.12 31.1393V21.9117L1034.12 17.2979Z" fill="#CECECE"/>
<path d="M1049.33 18.2206L1056.53 22.3311V30.5521L1049.33 34.6626L1042.12 30.5521V22.3311L1049.33 18.2206ZM1049.33 17.2979L1041.32 21.9117V31.1393L1049.33 35.7531L1057.33 31.1393V21.9117L1049.33 17.2979Z" fill="#CECECE"/>
<path d="M1064.53 18.2206L1071.73 22.3311V30.5521L1064.53 34.6626L1057.33 30.5521V22.3311L1064.53 18.2206ZM1064.53 17.2979L1056.53 21.9117V31.1393L1064.53 35.7531L1072.54 31.1393V21.9117L1064.53 17.2979Z" fill="#CECECE"/>
<path d="M1079.74 18.2206L1086.94 22.3311V30.5521L1079.74 34.6626L1072.54 30.5521V22.3311L1079.74 18.2206ZM1079.74 17.2979L1071.73 21.9117V31.1393L1079.74 35.7531L1087.74 31.1393V21.9117L1079.74 17.2979Z" fill="#CECECE"/>
<path d="M1094.94 18.2206L1102.15 22.3311V30.5521L1094.94 34.6626L1087.74 30.5521V22.3311L1094.94 18.2206ZM1094.94 17.2979L1086.94 21.9117V31.1393L1094.94 35.7531L1102.95 31.1393V21.9117L1094.94 17.2979Z" fill="#CECECE"/>
<path d="M1110.15 18.2206L1117.35 22.3311V30.5521L1110.15 34.6626L1102.95 30.5521V22.3311L1110.15 18.2206ZM1110.15 17.2979L1102.15 21.9117V31.1393L1110.15 35.7531L1118.15 31.1393V21.9117L1110.15 17.2979Z" fill="#CECECE"/>
<path d="M1125.36 18.2206L1132.56 22.3311V30.5521L1125.36 34.6626L1118.15 30.5521V22.3311L1125.36 18.2206ZM1125.36 17.2979L1117.35 21.9117V31.1393L1125.36 35.7531L1133.36 31.1393V21.9117L1125.36 17.2979Z" fill="#CECECE"/>
<path d="M1140.56 18.2206L1147.77 22.3311V30.5521L1140.56 34.6626L1133.36 30.5521V22.3311L1140.56 18.2206ZM1140.56 17.2979L1132.56 21.9117V31.1393L1140.56 35.7531L1148.57 31.1393V21.9117L1140.56 17.2979Z" fill="#CECECE"/>
<path d="M1155.77 18.2206L1162.97 22.3311V30.5521L1155.77 34.6626L1148.57 30.5521V22.3311L1155.77 18.2206ZM1155.77 17.2979L1147.77 21.9117V31.1393L1155.77 35.7531L1163.77 31.1393V21.9117L1155.77 17.2979Z" fill="#CECECE"/>
<path d="M1170.98 18.2206L1178.18 22.3311V30.5521L1170.98 34.6626L1163.77 30.5521V22.3311L1170.98 18.2206ZM1170.98 17.2979L1162.97 21.9117V31.1393L1170.98 35.7531L1178.98 31.1393V21.9117L1170.98 17.2979Z" fill="#CECECE"/>
<path d="M1186.18 18.2206L1193.39 22.3311V30.5521L1186.18 34.6626L1178.98 30.5521V22.3311L1186.18 18.2206ZM1186.18 17.2979L1178.18 21.9117V31.1393L1186.18 35.7531L1194.19 31.1393V21.9117L1186.18 17.2979Z" fill="#CECECE"/>
<path d="M1201.39 18.2206L1208.59 22.3311V30.5521L1201.39 34.6626L1194.19 30.5521V22.3311L1201.39 18.2206ZM1201.39 17.2979L1193.39 21.9117V31.1393L1201.39 35.7531L1209.39 31.1393V21.9117L1201.39 17.2979Z" fill="#CECECE"/>
<path d="M1216.6 18.2206L1223.8 22.3311V30.5521L1216.6 34.6626L1209.39 30.5521V22.3311L1216.6 18.2206ZM1216.6 17.2979L1208.59 21.9117V31.1393L1216.6 35.7531L1224.6 31.1393V21.9117L1216.6 17.2979Z" fill="#CECECE"/>
<path d="M1231.8 18.2206L1239.01 22.3311V30.5521L1231.8 34.6626L1224.6 30.5521V22.3311L1231.8 18.2206ZM1231.8 17.2979L1223.8 21.9117V31.1393L1231.8 35.7531L1239.81 31.1393V21.9117L1231.8 17.2979Z" fill="#CECECE"/>
<path d="M1247.01 18.2206L1254.21 22.3311V30.5521L1247.01 34.6626L1239.81 30.5521V22.3311L1247.01 18.2206ZM1247.01 17.2979L1239.01 21.9117V31.1393L1247.01 35.7531L1255.01 31.1393V21.9117L1247.01 17.2979Z" fill="#CECECE"/>
<path d="M1262.22 18.2206L1269.42 22.3311V30.5521L1262.22 34.6626L1255.01 30.5521V22.3311L1262.22 18.2206ZM1262.22 17.2979L1254.21 21.9117V31.1393L1262.22 35.7531L1270.22 31.1393V21.9117L1262.22 17.2979Z" fill="#CECECE"/>
<path d="M965.689 31.8105L972.893 35.921V44.1419L965.689 48.2524L958.486 44.1419V35.921L965.689 31.8105ZM965.689 30.8877L957.686 35.5015V44.7292L965.689 49.343L973.693 44.7292V35.5015L965.689 30.8877Z" fill="#CECECE"/>
<path d="M980.896 31.8105L988.099 35.921V44.1419L980.896 48.2524L973.693 44.1419V35.921L980.896 31.8105ZM980.896 30.8877L972.893 35.5015V44.7292L980.896 49.343L988.899 44.7292V35.5015L980.896 30.8877Z" fill="#CECECE"/>
<path d="M996.103 31.8105L1003.31 35.921V44.1419L996.103 48.2524L988.899 44.1419V35.921L996.103 31.8105ZM996.103 30.8877L988.099 35.5015V44.7292L996.103 49.343L1004.11 44.7292V35.5015L996.103 30.8877Z" fill="#CECECE"/>
<path d="M1011.31 31.8105L1018.51 35.921V44.1419L1011.31 48.2524L1004.11 44.1419V35.921L1011.31 31.8105ZM1011.31 30.8877L1003.31 35.5015V44.7292L1011.31 49.343L1019.31 44.7292V35.5015L1011.31 30.8877Z" fill="#CECECE"/>
<path d="M1026.52 31.8105L1033.72 35.921V44.1419L1026.52 48.2524L1019.31 44.1419V35.921L1026.52 31.8105ZM1026.52 30.8877L1018.51 35.5015V44.7292L1026.52 49.343L1034.52 44.7292V35.5015L1026.52 30.8877Z" fill="#CECECE"/>
<path d="M1041.72 31.8105L1048.93 35.921V44.1419L1041.72 48.2524L1034.52 44.1419V35.921L1041.72 31.8105ZM1041.72 30.8877L1033.72 35.5015V44.7292L1041.72 49.343L1049.73 44.7292V35.5015L1041.72 30.8877Z" fill="#CECECE"/>
<path d="M1056.93 31.8105L1064.13 35.921V44.1419L1056.93 48.2524L1049.73 44.1419V35.921L1056.93 31.8105ZM1056.93 30.8877L1048.93 35.5015V44.7292L1056.93 49.343L1064.93 44.7292V35.5015L1056.93 30.8877Z" fill="#CECECE"/>
<path d="M1072.14 31.8105L1079.34 35.921V44.1419L1072.14 48.2524L1064.93 44.1419V35.921L1072.14 31.8105ZM1072.14 30.8877L1064.13 35.5015V44.7292L1072.14 49.343L1080.14 44.7292V35.5015L1072.14 30.8877Z" fill="#CECECE"/>
<path d="M1087.34 31.8105L1094.54 35.921V44.1419L1087.34 48.2524L1080.14 44.1419V35.921L1087.34 31.8105ZM1087.34 30.8877L1079.34 35.5015V44.7292L1087.34 49.343L1095.35 44.7292V35.5015L1087.34 30.8877Z" fill="#CECECE"/>
<path d="M1102.55 31.8105L1109.75 35.921V44.1419L1102.55 48.2524L1095.35 44.1419V35.921L1102.55 31.8105ZM1102.55 30.8877L1094.54 35.5015V44.7292L1102.55 49.343L1110.55 44.7292V35.5015L1102.55 30.8877Z" fill="#CECECE"/>
<path d="M1117.75 31.8105L1124.96 35.921V44.1419L1117.75 48.2524L1110.55 44.1419V35.921L1117.75 31.8105ZM1117.75 30.8877L1109.75 35.5015V44.7292L1117.75 49.343L1125.76 44.7292V35.5015L1117.75 30.8877Z" fill="#CECECE"/>
<path d="M1132.96 31.8105L1140.16 35.921V44.1419L1132.96 48.2524L1125.76 44.1419V35.921L1132.96 31.8105ZM1132.96 30.8877L1124.96 35.5015V44.7292L1132.96 49.343L1140.96 44.7292V35.5015L1132.96 30.8877Z" fill="#CECECE"/>
<path d="M1148.17 31.8105L1155.37 35.921V44.1419L1148.17 48.2524L1140.96 44.1419V35.921L1148.17 31.8105ZM1148.17 30.8877L1140.16 35.5015V44.7292L1148.17 49.343L1156.17 44.7292V35.5015L1148.17 30.8877Z" fill="#CECECE"/>
<path d="M1163.37 31.8105L1170.58 35.921V44.1419L1163.37 48.2524L1156.17 44.1419V35.921L1163.37 31.8105ZM1163.37 30.8877L1155.37 35.5015V44.7292L1163.37 49.343L1171.38 44.7292V35.5015L1163.37 30.8877Z" fill="#CECECE"/>
<path d="M1178.58 31.8105L1185.78 35.921V44.1419L1178.58 48.2524L1171.38 44.1419V35.921L1178.58 31.8105ZM1178.58 30.8877L1170.58 35.5015V44.7292L1178.58 49.343L1186.58 44.7292V35.5015L1178.58 30.8877Z" fill="#CECECE"/>
<path d="M1193.79 31.8105L1200.99 35.921V44.1419L1193.79 48.2524L1186.58 44.1419V35.921L1193.79 31.8105ZM1193.79 30.8877L1185.78 35.5015V44.7292L1193.79 49.343L1201.79 44.7292V35.5015L1193.79 30.8877Z" fill="#CECECE"/>
<path d="M1208.99 31.8105L1216.2 35.921V44.1419L1208.99 48.2524L1201.79 44.1419V35.921L1208.99 31.8105ZM1208.99 30.8877L1200.99 35.5015V44.7292L1208.99 49.343L1217 44.7292V35.5015L1208.99 30.8877Z" fill="#CECECE"/>
<path d="M1224.2 31.8105L1231.4 35.921V44.1419L1224.2 48.2524L1217 44.1419V35.921L1224.2 31.8105ZM1224.2 30.8877L1216.2 35.5015V44.7292L1224.2 49.343L1232.2 44.7292V35.5015L1224.2 30.8877Z" fill="#CECECE"/>
<path d="M1239.41 31.8105L1246.61 35.921V44.1419L1239.41 48.2524L1232.2 44.1419V35.921L1239.41 31.8105ZM1239.41 30.8877L1231.4 35.5015V44.7292L1239.41 49.343L1247.41 44.7292V35.5015L1239.41 30.8877Z" fill="#CECECE"/>
<path d="M1254.61 31.8105L1261.82 35.921V44.1419L1254.61 48.2524L1247.41 44.1419V35.921L1254.61 31.8105ZM1254.61 30.8877L1246.61 35.5015V44.7292L1254.61 49.343L1262.62 44.7292V35.5015L1254.61 30.8877Z" fill="#CECECE"/>
<path d="M973.293 45.3162L980.496 49.4267V57.6477L973.293 61.7582L966.09 57.6477V49.4267L973.293 45.3162ZM973.293 44.3096L965.289 48.9234V58.151L973.293 62.7649L981.296 58.151V48.9234L973.293 44.3096Z" fill="#CECECE"/>
<path d="M988.499 45.3162L995.702 49.4267V57.6477L988.499 61.7582L981.296 57.6477V49.4267L988.499 45.3162ZM988.499 44.3096L980.496 48.9234V58.151L988.499 62.7649L996.503 58.151V48.9234L988.499 44.3096Z" fill="#CECECE"/>
<path d="M1003.71 45.3162L1010.91 49.4267V57.6477L1003.71 61.7582L996.503 57.6477V49.4267L1003.71 45.3162ZM1003.71 44.3096L995.702 48.9234V58.151L1003.71 62.7649L1011.71 58.151V48.9234L1003.71 44.3096Z" fill="#CECECE"/>
<path d="M1018.91 45.3162L1026.12 49.4267V57.6477L1018.91 61.7582L1011.71 57.6477V49.4267L1018.91 45.3162ZM1018.91 44.3096L1010.91 48.9234V58.151L1018.91 62.7649L1026.92 58.151V48.9234L1018.91 44.3096Z" fill="#CECECE"/>
<path d="M1034.12 45.3162L1041.32 49.4267V57.6477L1034.12 61.7582L1026.92 57.6477V49.4267L1034.12 45.3162ZM1034.12 44.3096L1026.12 48.9234V58.151L1034.12 62.7649L1042.12 58.151V48.9234L1034.12 44.3096Z" fill="#CECECE"/>
<path d="M1049.33 45.3162L1056.53 49.4267V57.6477L1049.33 61.7582L1042.12 57.6477V49.4267L1049.33 45.3162ZM1049.33 44.3096L1041.32 48.9234V58.151L1049.33 62.7649L1057.33 58.151V48.9234L1049.33 44.3096Z" fill="#CECECE"/>
<path d="M1064.53 45.3162L1071.73 49.4267V57.6477L1064.53 61.7582L1057.33 57.6477V49.4267L1064.53 45.3162ZM1064.53 44.3096L1056.53 48.9234V58.151L1064.53 62.7649L1072.54 58.151V48.9234L1064.53 44.3096Z" fill="#CECECE"/>
<path d="M1079.74 45.3162L1086.94 49.4267V57.6477L1079.74 61.7582L1072.54 57.6477V49.4267L1079.74 45.3162ZM1079.74 44.3096L1071.73 48.9234V58.151L1079.74 62.7649L1087.74 58.151V48.9234L1079.74 44.3096Z" fill="#CECECE"/>
<path d="M1094.94 45.3162L1102.15 49.4267V57.6477L1094.94 61.7582L1087.74 57.6477V49.4267L1094.94 45.3162ZM1094.94 44.3096L1086.94 48.9234V58.151L1094.94 62.7649L1102.95 58.151V48.9234L1094.94 44.3096Z" fill="#CECECE"/>
<path d="M1110.15 45.3162L1117.35 49.4267V57.6477L1110.15 61.7582L1102.95 57.6477V49.4267L1110.15 45.3162ZM1110.15 44.3096L1102.15 48.9234V58.151L1110.15 62.7649L1118.15 58.151V48.9234L1110.15 44.3096Z" fill="#CECECE"/>
<path d="M1125.36 45.3162L1132.56 49.4267V57.6477L1125.36 61.7582L1118.15 57.6477V49.4267L1125.36 45.3162ZM1125.36 44.3096L1117.35 48.9234V58.151L1125.36 62.7649L1133.36 58.151V48.9234L1125.36 44.3096Z" fill="#CECECE"/>
<path d="M1140.56 45.3162L1147.77 49.4267V57.6477L1140.56 61.7582L1133.36 57.6477V49.4267L1140.56 45.3162ZM1140.56 44.3096L1132.56 48.9234V58.151L1140.56 62.7649L1148.57 58.151V48.9234L1140.56 44.3096Z" fill="#CECECE"/>
<path d="M1155.77 45.3162L1162.97 49.4267V57.6477L1155.77 61.7582L1148.57 57.6477V49.4267L1155.77 45.3162ZM1155.77 44.3096L1147.77 48.9234V58.151L1155.77 62.7649L1163.77 58.151V48.9234L1155.77 44.3096Z" fill="#CECECE"/>
<path d="M1170.98 45.3162L1178.18 49.4267V57.6477L1170.98 61.7582L1163.77 57.6477V49.4267L1170.98 45.3162ZM1170.98 44.3096L1162.97 48.9234V58.151L1170.98 62.7649L1178.98 58.151V48.9234L1170.98 44.3096Z" fill="#CECECE"/>
<path d="M1186.18 45.3162L1193.39 49.4267V57.6477L1186.18 61.7582L1178.98 57.6477V49.4267L1186.18 45.3162ZM1186.18 44.3096L1178.18 48.9234V58.151L1186.18 62.7649L1194.19 58.151V48.9234L1186.18 44.3096Z" fill="#CECECE"/>
<path d="M1201.39 45.3162L1208.59 49.4267V57.6477L1201.39 61.7582L1194.19 57.6477V49.4267L1201.39 45.3162ZM1201.39 44.3096L1193.39 48.9234V58.151L1201.39 62.7649L1209.39 58.151V48.9234L1201.39 44.3096Z" fill="#CECECE"/>
<path d="M1216.6 45.3162L1223.8 49.4267V57.6477L1216.6 61.7582L1209.39 57.6477V49.4267L1216.6 45.3162ZM1216.6 44.3096L1208.59 48.9234V58.151L1216.6 62.7649L1224.6 58.151V48.9234L1216.6 44.3096Z" fill="#CECECE"/>
<path d="M1231.8 45.3162L1239.01 49.4267V57.6477L1231.8 61.7582L1224.6 57.6477V49.4267L1231.8 45.3162ZM1231.8 44.3096L1223.8 48.9234V58.151L1231.8 62.7649L1239.81 58.151V48.9234L1231.8 44.3096Z" fill="#CECECE"/>
<path d="M1247.01 45.3162L1254.21 49.4267V57.6477L1247.01 61.7582L1239.81 57.6477V49.4267L1247.01 45.3162ZM1247.01 44.3096L1239.01 48.9234V58.151L1247.01 62.7649L1255.01 58.151V48.9234L1247.01 44.3096Z" fill="#CECECE"/>
<path d="M1262.22 45.3162L1269.42 49.4267V57.6477L1262.22 61.7582L1255.01 57.6477V49.4267L1262.22 45.3162ZM1262.22 44.3096L1254.21 48.9234V58.151L1262.22 62.7649L1270.22 58.151V48.9234L1262.22 44.3096Z" fill="#CECECE"/>
<path d="M965.689 58.9061L972.893 63.0166V71.2376L965.689 75.348L958.486 71.2376V63.0166L965.689 58.9061ZM965.689 57.8994L957.686 62.5132V71.7409L965.689 76.3547L973.693 71.7409V62.5132L965.689 57.8994Z" fill="#CECECE"/>
<path d="M980.896 58.9061L988.099 63.0166V71.2376L980.896 75.348L973.693 71.2376V63.0166L980.896 58.9061ZM980.896 57.8994L972.893 62.5132V71.7409L980.896 76.3547L988.899 71.7409V62.5132L980.896 57.8994Z" fill="#CECECE"/>
<path d="M996.103 58.9061L1003.31 63.0166V71.2376L996.103 75.348L988.899 71.2376V63.0166L996.103 58.9061ZM996.103 57.8994L988.099 62.5132V71.7409L996.103 76.3547L1004.11 71.7409V62.5132L996.103 57.8994Z" fill="#CECECE"/>
<path d="M1011.31 58.9061L1018.51 63.0166V71.2376L1011.31 75.348L1004.11 71.2376V63.0166L1011.31 58.9061ZM1011.31 57.8994L1003.31 62.5132V71.7409L1011.31 76.3547L1019.31 71.7409V62.5132L1011.31 57.8994Z" fill="#CECECE"/>
<path d="M1026.52 58.9061L1033.72 63.0166V71.2376L1026.52 75.348L1019.31 71.2376V63.0166L1026.52 58.9061ZM1026.52 57.8994L1018.51 62.5132V71.7409L1026.52 76.3547L1034.52 71.7409V62.5132L1026.52 57.8994Z" fill="#CECECE"/>
<path d="M1041.72 58.9061L1048.93 63.0166V71.2376L1041.72 75.348L1034.52 71.2376V63.0166L1041.72 58.9061ZM1041.72 57.8994L1033.72 62.5132V71.7409L1041.72 76.3547L1049.73 71.7409V62.5132L1041.72 57.8994Z" fill="#CECECE"/>
<path d="M1056.93 58.9061L1064.13 63.0166V71.2376L1056.93 75.348L1049.73 71.2376V63.0166L1056.93 58.9061ZM1056.93 57.8994L1048.93 62.5132V71.7409L1056.93 76.3547L1064.93 71.7409V62.5132L1056.93 57.8994Z" fill="#CECECE"/>
<path d="M1072.14 58.9061L1079.34 63.0166V71.2376L1072.14 75.348L1064.93 71.2376V63.0166L1072.14 58.9061ZM1072.14 57.8994L1064.13 62.5132V71.7409L1072.14 76.3547L1080.14 71.7409V62.5132L1072.14 57.8994Z" fill="#CECECE"/>
<path d="M1087.34 58.9061L1094.54 63.0166V71.2376L1087.34 75.348L1080.14 71.2376V63.0166L1087.34 58.9061ZM1087.34 57.8994L1079.34 62.5132V71.7409L1087.34 76.3547L1095.35 71.7409V62.5132L1087.34 57.8994Z" fill="#CECECE"/>
<path d="M1102.55 58.9061L1109.75 63.0166V71.2376L1102.55 75.348L1095.35 71.2376V63.0166L1102.55 58.9061ZM1102.55 57.8994L1094.54 62.5132V71.7409L1102.55 76.3547L1110.55 71.7409V62.5132L1102.55 57.8994Z" fill="#CECECE"/>
<path d="M1117.75 58.9061L1124.96 63.0166V71.2376L1117.75 75.348L1110.55 71.2376V63.0166L1117.75 58.9061ZM1117.75 57.8994L1109.75 62.5132V71.7409L1117.75 76.3547L1125.76 71.7409V62.5132L1117.75 57.8994Z" fill="#CECECE"/>
<path d="M1132.96 58.9061L1140.16 63.0166V71.2376L1132.96 75.348L1125.76 71.2376V63.0166L1132.96 58.9061ZM1132.96 57.8994L1124.96 62.5132V71.7409L1132.96 76.3547L1140.96 71.7409V62.5132L1132.96 57.8994Z" fill="#CECECE"/>
<path d="M1148.17 58.9061L1155.37 63.0166V71.2376L1148.17 75.348L1140.96 71.2376V63.0166L1148.17 58.9061ZM1148.17 57.8994L1140.16 62.5132V71.7409L1148.17 76.3547L1156.17 71.7409V62.5132L1148.17 57.8994Z" fill="#CECECE"/>
<path d="M1163.37 58.9061L1170.58 63.0166V71.2376L1163.37 75.348L1156.17 71.2376V63.0166L1163.37 58.9061ZM1163.37 57.8994L1155.37 62.5132V71.7409L1163.37 76.3547L1171.38 71.7409V62.5132L1163.37 57.8994Z" fill="#CECECE"/>
<path d="M1178.58 58.9061L1185.78 63.0166V71.2376L1178.58 75.348L1171.38 71.2376V63.0166L1178.58 58.9061ZM1178.58 57.8994L1170.58 62.5132V71.7409L1178.58 76.3547L1186.58 71.7409V62.5132L1178.58 57.8994Z" fill="#CECECE"/>
<path d="M1193.79 58.9061L1200.99 63.0166V71.2376L1193.79 75.348L1186.58 71.2376V63.0166L1193.79 58.9061ZM1193.79 57.8994L1185.78 62.5132V71.7409L1193.79 76.3547L1201.79 71.7409V62.5132L1193.79 57.8994Z" fill="#CECECE"/>
<path d="M1208.99 58.9061L1216.2 63.0166V71.2376L1208.99 75.348L1201.79 71.2376V63.0166L1208.99 58.9061ZM1208.99 57.8994L1200.99 62.5132V71.7409L1208.99 76.3547L1217 71.7409V62.5132L1208.99 57.8994Z" fill="#CECECE"/>
<path d="M1224.2 58.9061L1231.4 63.0166V71.2376L1224.2 75.348L1217 71.2376V63.0166L1224.2 58.9061ZM1224.2 57.8994L1216.2 62.5132V71.7409L1224.2 76.3547L1232.2 71.7409V62.5132L1224.2 57.8994Z" fill="#CECECE"/>
<path d="M1239.41 58.9061L1246.61 63.0166V71.2376L1239.41 75.348L1232.2 71.2376V63.0166L1239.41 58.9061ZM1239.41 57.8994L1231.4 62.5132V71.7409L1239.41 76.3547L1247.41 71.7409V62.5132L1239.41 57.8994Z" fill="#CECECE"/>
<path d="M1254.61 58.9061L1261.82 63.0166V71.2376L1254.61 75.348L1247.41 71.2376V63.0166L1254.61 58.9061ZM1254.61 57.8994L1246.61 62.5132V71.7409L1254.61 76.3547L1262.62 71.7409V62.5132L1254.61 57.8994Z" fill="#CECECE"/>
<path d="M973.293 72.328L980.496 76.4385V84.6595L973.293 88.77L966.09 84.6595V76.4385L973.293 72.328ZM973.293 71.4053L965.289 76.0191V85.2467L973.293 89.8606L981.296 85.2467V76.0191L973.293 71.4053Z" fill="#CECECE"/>
<path d="M988.499 72.328L995.702 76.4385V84.6595L988.499 88.77L981.296 84.6595V76.4385L988.499 72.328ZM988.499 71.4053L980.496 76.0191V85.2467L988.499 89.8606L996.503 85.2467V76.0191L988.499 71.4053Z" fill="#CECECE"/>
<path d="M1003.71 72.328L1010.91 76.4385V84.6595L1003.71 88.77L996.503 84.6595V76.4385L1003.71 72.328ZM1003.71 71.4053L995.702 76.0191V85.2467L1003.71 89.8606L1011.71 85.2467V76.0191L1003.71 71.4053Z" fill="#CECECE"/>
<path d="M1018.91 72.328L1026.12 76.4385V84.6595L1018.91 88.77L1011.71 84.6595V76.4385L1018.91 72.328ZM1018.91 71.4053L1010.91 76.0191V85.2467L1018.91 89.8606L1026.92 85.2467V76.0191L1018.91 71.4053Z" fill="#CECECE"/>
<path d="M1034.12 72.328L1041.32 76.4385V84.6595L1034.12 88.77L1026.92 84.6595V76.4385L1034.12 72.328ZM1034.12 71.4053L1026.12 76.0191V85.2467L1034.12 89.8606L1042.12 85.2467V76.0191L1034.12 71.4053Z" fill="#CECECE"/>
<path d="M1049.33 72.328L1056.53 76.4385V84.6595L1049.33 88.77L1042.12 84.6595V76.4385L1049.33 72.328ZM1049.33 71.4053L1041.32 76.0191V85.2467L1049.33 89.8606L1057.33 85.2467V76.0191L1049.33 71.4053Z" fill="#CECECE"/>
<path d="M1064.53 72.328L1071.73 76.4385V84.6595L1064.53 88.77L1057.33 84.6595V76.4385L1064.53 72.328ZM1064.53 71.4053L1056.53 76.0191V85.2467L1064.53 89.8606L1072.54 85.2467V76.0191L1064.53 71.4053Z" fill="#CECECE"/>
<path d="M1079.74 72.328L1086.94 76.4385V84.6595L1079.74 88.77L1072.54 84.6595V76.4385L1079.74 72.328ZM1079.74 71.4053L1071.73 76.0191V85.2467L1079.74 89.8606L1087.74 85.2467V76.0191L1079.74 71.4053Z" fill="#CECECE"/>
<path d="M1094.94 72.328L1102.15 76.4385V84.6595L1094.94 88.77L1087.74 84.6595V76.4385L1094.94 72.328ZM1094.94 71.4053L1086.94 76.0191V85.2467L1094.94 89.8606L1102.95 85.2467V76.0191L1094.94 71.4053Z" fill="#CECECE"/>
<path d="M1110.15 72.328L1117.35 76.4385V84.6595L1110.15 88.77L1102.95 84.6595V76.4385L1110.15 72.328ZM1110.15 71.4053L1102.15 76.0191V85.2467L1110.15 89.8606L1118.15 85.2467V76.0191L1110.15 71.4053Z" fill="#CECECE"/>
<path d="M1125.36 72.328L1132.56 76.4385V84.6595L1125.36 88.77L1118.15 84.6595V76.4385L1125.36 72.328ZM1125.36 71.4053L1117.35 76.0191V85.2467L1125.36 89.8606L1133.36 85.2467V76.0191L1125.36 71.4053Z" fill="#CECECE"/>
<path d="M1140.56 72.328L1147.77 76.4385V84.6595L1140.56 88.77L1133.36 84.6595V76.4385L1140.56 72.328ZM1140.56 71.4053L1132.56 76.0191V85.2467L1140.56 89.8606L1148.57 85.2467V76.0191L1140.56 71.4053Z" fill="#CECECE"/>
<path d="M1155.77 72.328L1162.97 76.4385V84.6595L1155.77 88.77L1148.57 84.6595V76.4385L1155.77 72.328ZM1155.77 71.4053L1147.77 76.0191V85.2467L1155.77 89.8606L1163.77 85.2467V76.0191L1155.77 71.4053Z" fill="#CECECE"/>
<path d="M1170.98 72.328L1178.18 76.4385V84.6595L1170.98 88.77L1163.77 84.6595V76.4385L1170.98 72.328ZM1170.98 71.4053L1162.97 76.0191V85.2467L1170.98 89.8606L1178.98 85.2467V76.0191L1170.98 71.4053Z" fill="#CECECE"/>
<path d="M1186.18 72.328L1193.39 76.4385V84.6595L1186.18 88.77L1178.98 84.6595V76.4385L1186.18 72.328ZM1186.18 71.4053L1178.18 76.0191V85.2467L1186.18 89.8606L1194.19 85.2467V76.0191L1186.18 71.4053Z" fill="#CECECE"/>
<path d="M1201.39 72.328L1208.59 76.4385V84.6595L1201.39 88.77L1194.19 84.6595V76.4385L1201.39 72.328ZM1201.39 71.4053L1193.39 76.0191V85.2467L1201.39 89.8606L1209.39 85.2467V76.0191L1201.39 71.4053Z" fill="#CECECE"/>
<path d="M1216.6 72.328L1223.8 76.4385V84.6595L1216.6 88.77L1209.39 84.6595V76.4385L1216.6 72.328ZM1216.6 71.4053L1208.59 76.0191V85.2467L1216.6 89.8606L1224.6 85.2467V76.0191L1216.6 71.4053Z" fill="#CECECE"/>
<path d="M1231.8 72.328L1239.01 76.4385V84.6595L1231.8 88.77L1224.6 84.6595V76.4385L1231.8 72.328ZM1231.8 71.4053L1223.8 76.0191V85.2467L1231.8 89.8606L1239.81 85.2467V76.0191L1231.8 71.4053Z" fill="#CECECE"/>
<path d="M1247.01 72.328L1254.21 76.4385V84.6595L1247.01 88.77L1239.81 84.6595V76.4385L1247.01 72.328ZM1247.01 71.4053L1239.01 76.0191V85.2467L1247.01 89.8606L1255.01 85.2467V76.0191L1247.01 71.4053Z" fill="#CECECE"/>
<path d="M1262.22 72.328L1269.42 76.4385V84.6595L1262.22 88.77L1255.01 84.6595V76.4385L1262.22 72.328ZM1262.22 71.4053L1254.21 76.0191V85.2467L1262.22 89.8606L1270.22 85.2467V76.0191L1262.22 71.4053Z" fill="#CECECE"/>
<path d="M965.689 85.9179L972.893 90.0284V98.2494L965.689 102.36L958.486 98.2494V90.1123L965.689 85.9179ZM965.689 84.9951L957.686 89.6089V98.8366L965.689 103.45L973.693 98.8366V89.6089L965.689 84.9951Z" fill="#CECECE"/>
<path d="M980.896 85.9179L988.099 90.0284V98.2494L980.896 102.36L973.693 98.2494V90.1123L980.896 85.9179ZM980.896 84.9951L972.893 89.6089V98.8366L980.896 103.45L988.899 98.8366V89.6089L980.896 84.9951Z" fill="#CECECE"/>
<path d="M996.103 85.9179L1003.31 90.0284V98.2494L996.103 102.36L988.899 98.2494V90.1123L996.103 85.9179ZM996.103 84.9951L988.099 89.6089V98.8366L996.103 103.45L1004.11 98.8366V89.6089L996.103 84.9951Z" fill="#CECECE"/>
<path d="M1011.31 85.9179L1018.51 90.0284V98.2494L1011.31 102.36L1004.11 98.2494V90.1123L1011.31 85.9179ZM1011.31 84.9951L1003.31 89.6089V98.8366L1011.31 103.45L1019.31 98.8366V89.6089L1011.31 84.9951Z" fill="#CECECE"/>
<path d="M1026.52 85.9179L1033.72 90.0284V98.2494L1026.52 102.36L1019.31 98.2494V90.1123L1026.52 85.9179ZM1026.52 84.9951L1018.51 89.6089V98.8366L1026.52 103.45L1034.52 98.8366V89.6089L1026.52 84.9951Z" fill="#CECECE"/>
<path d="M1041.72 85.9179L1048.93 90.0284V98.2494L1041.72 102.36L1034.52 98.2494V90.1123L1041.72 85.9179ZM1041.72 84.9951L1033.72 89.6089V98.8366L1041.72 103.45L1049.73 98.8366V89.6089L1041.72 84.9951Z" fill="#CECECE"/>
<path d="M1056.93 85.9179L1064.13 90.0284V98.2494L1056.93 102.36L1049.73 98.2494V90.1123L1056.93 85.9179ZM1056.93 84.9951L1048.93 89.6089V98.8366L1056.93 103.45L1064.93 98.8366V89.6089L1056.93 84.9951Z" fill="#CECECE"/>
<path d="M1072.14 85.9179L1079.34 90.0284V98.2494L1072.14 102.36L1064.93 98.2494V90.1123L1072.14 85.9179ZM1072.14 84.9951L1064.13 89.6089V98.8366L1072.14 103.45L1080.14 98.8366V89.6089L1072.14 84.9951Z" fill="#CECECE"/>
<path d="M1087.34 85.9179L1094.54 90.0284V98.2494L1087.34 102.36L1080.14 98.2494V90.1123L1087.34 85.9179ZM1087.34 84.9951L1079.34 89.6089V98.8366L1087.34 103.45L1095.35 98.8366V89.6089L1087.34 84.9951Z" fill="#CECECE"/>
<path d="M1102.55 85.9179L1109.75 90.0284V98.2494L1102.55 102.36L1095.35 98.2494V90.1123L1102.55 85.9179ZM1102.55 84.9951L1094.54 89.6089V98.8366L1102.55 103.45L1110.55 98.8366V89.6089L1102.55 84.9951Z" fill="#CECECE"/>
<path d="M1117.75 85.9179L1124.96 90.0284V98.2494L1117.75 102.36L1110.55 98.2494V90.1123L1117.75 85.9179ZM1117.75 84.9951L1109.75 89.6089V98.8366L1117.75 103.45L1125.76 98.8366V89.6089L1117.75 84.9951Z" fill="#CECECE"/>
<path d="M1132.96 85.9179L1140.16 90.0284V98.2494L1132.96 102.36L1125.76 98.2494V90.1123L1132.96 85.9179ZM1132.96 84.9951L1124.96 89.6089V98.8366L1132.96 103.45L1140.96 98.8366V89.6089L1132.96 84.9951Z" fill="#CECECE"/>
<path d="M1148.17 85.9179L1155.37 90.0284V98.2494L1148.17 102.36L1140.96 98.2494V90.1123L1148.17 85.9179ZM1148.17 84.9951L1140.16 89.6089V98.8366L1148.17 103.45L1156.17 98.8366V89.6089L1148.17 84.9951Z" fill="#CECECE"/>
<path d="M1163.37 85.9179L1170.58 90.0284V98.2494L1163.37 102.36L1156.17 98.2494V90.1123L1163.37 85.9179ZM1163.37 84.9951L1155.37 89.6089V98.8366L1163.37 103.45L1171.38 98.8366V89.6089L1163.37 84.9951Z" fill="#CECECE"/>
<path d="M1178.58 85.9179L1185.78 90.0284V98.2494L1178.58 102.36L1171.38 98.2494V90.1123L1178.58 85.9179ZM1178.58 84.9951L1170.58 89.6089V98.8366L1178.58 103.45L1186.58 98.8366V89.6089L1178.58 84.9951Z" fill="#CECECE"/>
<path d="M1193.79 85.9179L1200.99 90.0284V98.2494L1193.79 102.36L1186.58 98.2494V90.1123L1193.79 85.9179ZM1193.79 84.9951L1185.78 89.6089V98.8366L1193.79 103.45L1201.79 98.8366V89.6089L1193.79 84.9951Z" fill="#CECECE"/>
<path d="M1208.99 85.9179L1216.2 90.0284V98.2494L1208.99 102.36L1201.79 98.2494V90.1123L1208.99 85.9179ZM1208.99 84.9951L1200.99 89.6089V98.8366L1208.99 103.45L1217 98.8366V89.6089L1208.99 84.9951Z" fill="#CECECE"/>
<path d="M1224.2 85.9179L1231.4 90.0284V98.2494L1224.2 102.36L1217 98.2494V90.1123L1224.2 85.9179ZM1224.2 84.9951L1216.2 89.6089V98.8366L1224.2 103.45L1232.2 98.8366V89.6089L1224.2 84.9951Z" fill="#CECECE"/>
<path d="M1239.41 85.9179L1246.61 90.0284V98.2494L1239.41 102.36L1232.2 98.2494V90.1123L1239.41 85.9179ZM1239.41 84.9951L1231.4 89.6089V98.8366L1239.41 103.45L1247.41 98.8366V89.6089L1239.41 84.9951Z" fill="#CECECE"/>
<path d="M1254.61 85.9179L1261.82 90.0284V98.2494L1254.61 102.36L1247.41 98.2494V90.1123L1254.61 85.9179ZM1254.61 84.9951L1246.61 89.6089V98.8366L1254.61 103.45L1262.62 98.8366V89.6089L1254.61 84.9951Z" fill="#CECECE"/>
<path d="M973.293 99.4236L980.496 103.534V111.755L973.293 115.866L966.09 111.755V103.534L973.293 99.4236ZM973.293 98.417L965.289 103.031V112.258L973.293 116.872L981.296 112.258V103.031L973.293 98.417Z" fill="#CECECE"/>
<path d="M988.499 99.4236L995.702 103.534V111.755L988.499 115.866L981.296 111.755V103.534L988.499 99.4236ZM988.499 98.417L980.496 103.031V112.258L988.499 116.872L996.503 112.258V103.031L988.499 98.417Z" fill="#CECECE"/>
<path d="M1003.71 99.4236L1010.91 103.534V111.755L1003.71 115.866L996.503 111.755V103.534L1003.71 99.4236ZM1003.71 98.417L995.702 103.031V112.258L1003.71 116.872L1011.71 112.258V103.031L1003.71 98.417Z" fill="#CECECE"/>
<path d="M1018.91 99.4236L1026.12 103.534V111.755L1018.91 115.866L1011.71 111.755V103.534L1018.91 99.4236ZM1018.91 98.417L1010.91 103.031V112.258L1018.91 116.872L1026.92 112.258V103.031L1018.91 98.417Z" fill="#CECECE"/>
<path d="M1034.12 99.4236L1041.32 103.534V111.755L1034.12 115.866L1026.92 111.755V103.534L1034.12 99.4236ZM1034.12 98.417L1026.12 103.031V112.258L1034.12 116.872L1042.12 112.258V103.031L1034.12 98.417Z" fill="#CECECE"/>
<path d="M1049.33 99.4236L1056.53 103.534V111.755L1049.33 115.866L1042.12 111.755V103.534L1049.33 99.4236ZM1049.33 98.417L1041.32 103.031V112.258L1049.33 116.872L1057.33 112.258V103.031L1049.33 98.417Z" fill="#CECECE"/>
<path d="M1064.53 99.4236L1071.73 103.534V111.755L1064.53 115.866L1057.33 111.755V103.534L1064.53 99.4236ZM1064.53 98.417L1056.53 103.031V112.258L1064.53 116.872L1072.54 112.258V103.031L1064.53 98.417Z" fill="#CECECE"/>
<path d="M1079.74 99.4236L1086.94 103.534V111.755L1079.74 115.866L1072.54 111.755V103.534L1079.74 99.4236ZM1079.74 98.417L1071.73 103.031V112.258L1079.74 116.872L1087.74 112.258V103.031L1079.74 98.417Z" fill="#CECECE"/>
<path d="M1094.94 99.4236L1102.15 103.534V111.755L1094.94 115.866L1087.74 111.755V103.534L1094.94 99.4236ZM1094.94 98.417L1086.94 103.031V112.258L1094.94 116.872L1102.95 112.258V103.031L1094.94 98.417Z" fill="#CECECE"/>
<path d="M1110.15 99.4236L1117.35 103.534V111.755L1110.15 115.866L1102.95 111.755V103.534L1110.15 99.4236ZM1110.15 98.417L1102.15 103.031V112.258L1110.15 116.872L1118.15 112.258V103.031L1110.15 98.417Z" fill="#CECECE"/>
<path d="M1125.36 99.4236L1132.56 103.534V111.755L1125.36 115.866L1118.15 111.755V103.534L1125.36 99.4236ZM1125.36 98.417L1117.35 103.031V112.258L1125.36 116.872L1133.36 112.258V103.031L1125.36 98.417Z" fill="#CECECE"/>
<path d="M1140.56 99.4236L1147.77 103.534V111.755L1140.56 115.866L1133.36 111.755V103.534L1140.56 99.4236ZM1140.56 98.417L1132.56 103.031V112.258L1140.56 116.872L1148.57 112.258V103.031L1140.56 98.417Z" fill="#CECECE"/>
<path d="M1155.77 99.4236L1162.97 103.534V111.755L1155.77 115.866L1148.57 111.755V103.534L1155.77 99.4236ZM1155.77 98.417L1147.77 103.031V112.258L1155.77 116.872L1163.77 112.258V103.031L1155.77 98.417Z" fill="#CECECE"/>
<path d="M1170.98 99.4236L1178.18 103.534V111.755L1170.98 115.866L1163.77 111.755V103.534L1170.98 99.4236ZM1170.98 98.417L1162.97 103.031V112.258L1170.98 116.872L1178.98 112.258V103.031L1170.98 98.417Z" fill="#CECECE"/>
<path d="M1186.18 99.4236L1193.39 103.534V111.755L1186.18 115.866L1178.98 111.755V103.534L1186.18 99.4236ZM1186.18 98.417L1178.18 103.031V112.258L1186.18 116.872L1194.19 112.258V103.031L1186.18 98.417Z" fill="#CECECE"/>
<path d="M1201.39 99.4236L1208.59 103.534V111.755L1201.39 115.866L1194.19 111.755V103.534L1201.39 99.4236ZM1201.39 98.417L1193.39 103.031V112.258L1201.39 116.872L1209.39 112.258V103.031L1201.39 98.417Z" fill="#CECECE"/>
<path d="M1216.6 99.4236L1223.8 103.534V111.755L1216.6 115.866L1209.39 111.755V103.534L1216.6 99.4236ZM1216.6 98.417L1208.59 103.031V112.258L1216.6 116.872L1224.6 112.258V103.031L1216.6 98.417Z" fill="#CECECE"/>
<path d="M1231.8 99.4236L1239.01 103.534V111.755L1231.8 115.866L1224.6 111.755V103.534L1231.8 99.4236ZM1231.8 98.417L1223.8 103.031V112.258L1231.8 116.872L1239.81 112.258V103.031L1231.8 98.417Z" fill="#CECECE"/>
<path d="M1247.01 99.4236L1254.21 103.534V111.755L1247.01 115.866L1239.81 111.755V103.534L1247.01 99.4236ZM1247.01 98.417L1239.01 103.031V112.258L1247.01 116.872L1255.01 112.258V103.031L1247.01 98.417Z" fill="#CECECE"/>
<path d="M1262.22 99.4236L1269.42 103.534V111.755L1262.22 115.866L1255.01 111.755V103.534L1262.22 99.4236ZM1262.22 98.417L1254.21 103.031V112.258L1262.22 116.872L1270.22 112.258V103.031L1262.22 98.417Z" fill="#CECECE"/>
<path d="M957.686 117.257V0H1267.31V117.257" stroke="white" stroke-width="7.89"/>
<path d="M957.686 117.257V0H1267.31V117.257" stroke="white" stroke-width="7.89"/>
<path fill-rule="evenodd" clip-rule="evenodd" d="M1580.07 117.5L1620 335.462H617.938L653.257 117.53L1580.07 117.5Z" stroke="white" stroke-width="5"/>
<path d="M910.001 336.527C1041.05 415.824 1178.3 415.824 1321.75 336.527M1362.75 117.505L1372.5 204.234H854.678L862.767 117.505H1362.75Z" stroke="white" stroke-width="5"/>
<path d="M1111.89 270.744C1118.11 270.744 1123.16 268.149 1123.16 264.948C1123.16 261.747 1118.11 259.152 1111.89 259.152C1105.67 259.152 1100.63 261.747 1100.63 264.948C1100.63 268.149 1105.67 270.744 1111.89 270.744Z" fill="white"/>
<path d="M2093 1164.49H134V1171.36H2093V1164.49Z" fill="white"/>
<path d="M1114.46 1191.04C1128.99 1191.04 1140.78 1180.79 1140.78 1168.14C1140.78 1155.49 1128.99 1145.23 1114.46 1145.23C1099.92 1145.23 1088.14 1155.49 1088.14 1168.14C1088.14 1180.79 1099.92 1191.04 1114.46 1191.04Z" fill="white"/>
<path d="M1114.3 1375C1244.47 1375 1350 1285.68 1350 1175.5C1350 1065.32 1244.47 976 1114.3 976C984.132 976 878.607 1065.32 878.607 1175.5C878.607 1285.68 984.132 1375 1114.3 1375Z" stroke="white" stroke-width="8"/>
<path d="M435 133C448.398 131.453 456.325 126.775 458.782 118.968M1795 132.648C1787.07 132.344 1782.02 131.491 1779.85 130.09C1772.7 125.489 1772.26 118 1772.26 118" stroke="white" stroke-width="4"/>
<path fill-rule="evenodd" clip-rule="evenodd" d="M436.152 115.001L443.197 115L-48.774 1789.99L-55.803 1790L436.152 115.001Z" fill="white"/>
<path fill-rule="evenodd" clip-rule="evenodd" d="M1786.78 115.005H1793.66L2272.78 1789.99L2265.89 1790L1786.78 115.005Z" fill="white"/>
<path fill-rule="evenodd" clip-rule="evenodd" d="M443.076 115.005H1788.27V120.054H441.638L443.076 115.005Z" fill="white"/>
</g>
<defs>
<clipPath id="clip0_196_213">
<rect width="2232" height="1790" fill="white"/>
</clipPath>
</defs>
</svg>
